<svg xmlns="http://www.w3.org/2000/svg" viewBox="0 0 72 72"><defs><style>.cls-1{fill:#004643;}</style></defs><g id="Layer_2" data-name="Layer 2"><g id="Layer_1-2" data-name="Layer 1"><path class="cls-1" d="M64,0H8A8,8,0,0,0,0,8V64a8,8,0,0,0,8,8H64a8,8,0,0,0,8-8V8A8,8,0,0,0,64,0ZM42,22H56v4H42ZM26.05,50H12V22H25.46c1.47,0,9.37-.09,9.37,7.14A5.92,5.92,0,0,1,31,34.86c1.76.57,5,2.19,5,7.14C36,49.67,27.22,50,26.05,50Zm23.73-4.34a5.5,5.5,0,0,0,3.1-.87,4,4,0,0,0,1.54-1.74h5.27a10.22,10.22,0,0,1-4,5.21A12,12,0,0,1,49.16,50a13.19,13.19,0,0,1-4.65-.87,13.76,13.76,0,0,1-3.41-2.32,9.77,9.77,0,0,1-2.17-3.47A9.93,9.93,0,0,1,38,39c0-1.44.58-11,11.47-11,7.79,0,9.91,6.08,10.22,7.53A20.34,20.34,0,0,1,60,40H44.2C44.2,41.74,45.13,45.66,49.78,45.66Z"/><path class="cls-1" d="M54.11,36.68H44.2a5.26,5.26,0,0,1,5.27-4.63C52.5,32.05,53.8,35.24,54.11,36.68Z"/><path class="cls-1" d="M29.35,41.43c0,3.52-4.09,3.71-4.68,3.71H17.94V37.43h6.73C26.13,37.43,29.35,37.9,29.35,41.43Z"/><path class="cls-1" d="M28.25,30c0,2.93-2.93,3.43-3.81,3.43H18V26.86h5.86C24.44,26.86,28.25,27.06,28.25,30Z"/></g></g></svg>