<svg xmlns="http://www.w3.org/2000/svg" viewBox="0 0 72 72"><defs><style>.cls-1{fill:#004643;}</style></defs><g id="Layer_2" data-name="Layer 2"><g id="Layer_1-2" data-name="Layer 1"><path class="cls-1" d="M52.11,0H19.89A19.9,19.9,0,0,0,0,19.89V52.11A19.9,19.9,0,0,0,19.89,72H52.11A19.9,19.9,0,0,0,72,52.11V19.89A19.9,19.9,0,0,0,52.11,0ZM64,48.15A15.83,15.83,0,0,1,48.15,64H23.85A15.83,15.83,0,0,1,8,48.15V23.85A15.83,15.83,0,0,1,23.85,8h24.3A15.83,15.83,0,0,1,64,23.85Z"/><path class="cls-1" d="M47.7,11.83H24.3A12.47,12.47,0,0,0,11.83,24.3V47.7A12.47,12.47,0,0,0,24.3,60.17H47.7A12.47,12.47,0,0,0,60.17,47.7V24.3A12.47,12.47,0,0,0,47.7,11.83ZM46,46a14.22,14.22,0,1,1,4.15-10A14.19,14.19,0,0,1,46,46Zm4-24a2,2,0,1,1,2-2A2,2,0,0,1,50,22Z"/></g></g></svg>