<?xml version="1.0" encoding="utf-8"?>
<!-- Generator: Adobe Illustrator 26.0.1, SVG Export Plug-In . SVG Version: 6.00 Build 0)  -->
<svg version="1.1" id="Layer_1" xmlns="http://www.w3.org/2000/svg" xmlns:xlink="http://www.w3.org/1999/xlink" x="0px" y="0px"
	 viewBox="0 0 1000 1000" style="enable-background:new 0 0 1000 1000;" xml:space="preserve">
<g id="Layer_2_00000142136357745275663470000000617852949307462797_">
	<g id="Layer_1-2">
		<path d="M-1583.5,770.9V657.2c-20,0-32.8,5-39.3,25.3l-2.5-0.3c0-10.1,4.2-23.8,7.2-29h109c3.2,5.2,7.3,18.8,7.3,29l-2.7,0.3
			c-6.5-20.3-19.1-25.3-39.1-25.3v113.7H-1583.5z"/>
		<path d="M-1405.6,731.3c0,18.5-12,42.1-50.4,42.1c-38.4,0-50.4-23.6-50.4-42.1c0-18.5,12-42.3,50.4-42.3
			C-1417.6,689-1405.6,712.8-1405.6,731.3z M-1469.3,725.6c0,2.3,0.2,4.5,0.2,6.3c0.7,11,4,39.3,15,39.3h0.3
			c9.2-0.3,11-20.1,11-33.3c0-2.8,0-5.3-0.2-7.3c-0.5-11.1-3.8-39.4-14.8-39.4h-0.3C-1467.7,691.7-1469.3,712.3-1469.3,725.6z"/>
		<path d="M-1339.5,770.9V761c-2.3,7.5-11.7,12.8-21,12.8c-23.6,0-35.1-19-35.1-42.1c0-23.3,11.5-42.3,35.1-42.3
			c9.3,0,18.6,5.3,21,12.8V653c12.7-1.1,25.3-3.6,37.4-7.3v125.1H-1339.5z M-1347.9,699c-5.2,0-10.7,7.7-10.7,25.1
			c0,2.3,0.2,5,0.3,7.7c1.3,17.5,8.6,28.9,13.8,28.9c2.7,0,4.8-3.5,4.8-11.3V714C-1339.5,704.5-1343.5,699-1347.9,699z"/>
		<path d="M-1188.4,731.3c0,18.5-12,42.1-50.4,42.1c-38.4,0-50.4-23.6-50.4-42.1c0-18.5,12-42.3,50.4-42.3
			C-1200.4,689-1188.4,712.8-1188.4,731.3z M-1252.2,725.6c0,2.3,0.2,4.5,0.2,6.3c0.7,11,4,39.3,15,39.3h0.3
			c9.2-0.3,11-20.1,11-33.3c0-2.8,0-5.3-0.2-7.3c-0.5-11.1-3.8-39.4-14.8-39.4h-0.3C-1250.5,691.7-1252.2,712.3-1252.2,725.6
			L-1252.2,725.6z"/>
		<path d="M-1108.4,719.3v4h-71.7v-4H-1108.4z"/>
		<path d="M-1059.8,664.5c0,10.3-8.5,18.7-18.8,18.6c-10.3,0-18.7-8.5-18.6-18.8c0-10.3,8.4-18.6,18.6-18.6
			C-1068.3,645.8-1059.9,654.2-1059.8,664.5z M-1097.3,770.9v-74.5c12.7-1.1,25.3-3.6,37.4-7.3v81.9H-1097.3z"/>
		<path d="M-964.8,703.8l-0.2,1.2c-0.4,4.6-3.1,8.8-7.2,11c-2.2,1.3-4.6,2-7.2,2c-3.6,0-7-1.4-9.7-3.8c1.8-3,2.7-6.4,2.7-9.8
			c0-6.3-3-12.7-10.7-12.7c-10.3,0-15.8,5.7-15.8,11.7c0,5,3.8,10.3,11.5,13c29.1,8,41.3,14.3,41.3,31.3c0,18.6-24.5,26.3-48.8,26.3
			c-11.8,0-38-0.3-39.1-17.5v-1.2c0-5.8,3.5-11.3,8.8-14.6c2.7-1.5,5.7-2.3,8.8-2.3c4.4,0,8.6,1.7,11.8,4.7c-2,3.7-3.1,7.9-3,12.1
			c0,8,3.5,16,12.7,16c12.3,0,19.3-6.3,19.3-13.3c0-4.2-2.8-8.7-8.7-12c-14.5-8.2-44.8-8.2-44.9-32.3c0-18.6,21.8-24.5,46.1-24.5
			C-986.6,689-964.8,691-964.8,703.8z"/>
		<path d="M-955,694.8V691c16.6,0,44.3-20.8,44.3-28.3h2.8V691h18.6v3.8h-18.6v55.8c0,9,3.2,11.8,6.7,11.8c4.5,0,9.5-4.3,10.7-7.7
			l1.3,1.3c-5,10.9-15.8,18-27.8,18.3c-17.3,0-28.3-12.5-28.3-31.8v-47.8H-955z"/>
	</g>
</g>
<g id="Layer_2_00000121988966204061977870000018301227558027497089_">
	<g id="Layer_1-2_00000078020156429219830420000016388497018377780158_">
		<path d="M243,547.9v-89.5c-15.8,0-25.8,3.9-30.9,19.9l-2-0.3c0-8,3.3-18.7,5.6-22.8h85.9c2.5,4.1,5.8,14.8,5.8,22.8l-2.1,0.3
			c-5.1-16-15.1-19.9-30.8-19.9v89.5H243z"/>
		<path d="M383.1,516.7c0,14.6-9.5,33.2-39.7,33.2c-30.3,0-39.7-18.6-39.7-33.2c0-14.5,9.5-33.3,39.7-33.3
			C373.7,483.4,383.1,502.2,383.1,516.7z M332.9,512.3c0,1.8,0.1,3.5,0.1,5c0.5,8.7,3.2,30.9,11.8,30.9h0.3
			c7.2-0.3,8.7-15.9,8.7-26.2c0-2.2,0-4.2-0.1-5.8c-0.4-8.8-3-31.1-11.7-31.1h-0.3C334.2,485.5,332.9,501.8,332.9,512.3z"/>
		<path d="M435.2,547.9v-7.7c-1.8,5.9-9.2,10.1-16.5,10.1c-18.6,0-27.7-15-27.7-33.2c0-18.4,9-33.3,27.7-33.3
			c7.3,0,14.7,4.2,16.5,10.1v-38.8c10-0.9,19.9-2.8,29.5-5.8v98.6H435.2z M428.6,491.3c-4.1,0-8.4,6-8.4,19.8c0,1.8,0.1,3.9,0.3,6
			c1,13.8,6.8,22.8,10.9,22.8c2.1,0,3.8-2.7,3.8-8.9v-27.9C435.2,495.6,432,491.3,428.6,491.3z"/>
		<path d="M554.2,516.7c0,14.6-9.5,33.2-39.7,33.2s-39.7-18.6-39.7-33.2c0-14.5,9.5-33.3,39.7-33.3S554.2,502.2,554.2,516.7z
			 M504,512.3c0,1.8,0.1,3.5,0.1,5c0.5,8.7,3.2,30.9,11.8,30.9h0.3c7.2-0.3,8.7-15.9,8.7-26.2c0-2.2,0-4.2-0.1-5.8
			c-0.4-8.8-3-31.1-11.7-31.1h-0.3C505.3,485.5,504,501.8,504,512.3L504,512.3z"/>
		<path d="M617.3,507.3v3.2h-56.5v-3.2H617.3z"/>
		<path d="M655.5,464.1c0,8.1-6.7,14.7-14.8,14.7S626,472.2,626,464c0-8.1,6.6-14.6,14.7-14.7C648.9,449.4,655.5,456,655.5,464.1z
			 M626,547.9v-58.7c10-0.9,19.9-2.8,29.5-5.8v64.5H626z"/>
		<path d="M730.4,495.1l-0.1,0.9c-0.3,3.7-2.4,6.9-5.6,8.7c-1.7,1-3.7,1.6-5.6,1.6c-2.8,0-5.5-1.1-7.6-3c1.4-2.3,2.1-5,2.1-7.8
			c0-5-2.4-10-8.4-10c-8.1,0-12.5,4.5-12.5,9.2c0,3.9,3,8.1,9,10.2c22.9,6.3,32.5,11.3,32.5,24.6c0,14.7-19.3,20.7-38.4,20.7
			c-9.3,0-29.9-0.3-30.8-13.8v-0.9c0-4.6,2.7-8.9,6.9-11.5c2.1-1.2,4.5-1.8,6.9-1.8c3.5,0,6.8,1.3,9.3,3.7c-1.6,2.9-2.4,6.2-2.4,9.6
			c0,6.3,2.7,12.6,10,12.6c9.7,0,15.2-5,15.2-10.5c0-3.3-2.2-6.8-6.8-9.5c-11.4-6.4-35.3-6.4-35.4-25.4c0-14.7,17.2-19.3,36.3-19.3
			C713.2,483.4,730.4,485,730.4,495.1z"/>
		<path d="M738.1,488v-3c13.1,0,34.9-16.4,34.9-22.3h2.2V485h14.7v3h-14.7v43.9c0,7.1,2.5,9.3,5.2,9.3c3.5,0,7.5-3.4,8.4-6l1,1
			c-3.9,8.6-12.4,14.2-21.9,14.4c-13.6,0-22.3-9.8-22.3-25V488H738.1z"/>
	</g>
</g>
</svg>
